<mxfile host="app.diagrams.net" modified="2021-04-24T11:58:48.798Z" agent="5.0 (Windows NT 10.0; Win64; x64) AppleWebKit/537.36 (KHTML, like Gecko) Chrome/86.0.4240.198 Whale/2.9.116.15 Safari/537.36" etag="_P6m0xeMXgkBTNt4tFDo" version="14.6.6" type="github">
  <diagram id="KTYdBVMmeyyJGfyXrVQu" name="Page-1">
    <mxGraphModel dx="700" dy="783" grid="1" gridSize="10" guides="1" tooltips="1" connect="1" arrows="1" fold="1" page="1" pageScale="1" pageWidth="827" pageHeight="1169" math="0" shadow="0">
      <root>
        <mxCell id="0" />
        <mxCell id="1" parent="0" />
        <mxCell id="-7GFlVDksnStliJgZsOv-1" value="Actor" style="shape=umlActor;verticalLabelPosition=bottom;verticalAlign=top;html=1;outlineConnect=0;" vertex="1" parent="1">
          <mxGeometry x="30" y="310" width="30" height="60" as="geometry" />
        </mxCell>
        <mxCell id="-7GFlVDksnStliJgZsOv-3" value="Guest" style="text;html=1;strokeColor=none;fillColor=none;align=center;verticalAlign=middle;whiteSpace=wrap;rounded=0;" vertex="1" parent="1">
          <mxGeometry x="25" y="280" width="40" height="20" as="geometry" />
        </mxCell>
        <mxCell id="-7GFlVDksnStliJgZsOv-4" value="" style="rounded=0;whiteSpace=wrap;html=1;" vertex="1" parent="1">
          <mxGeometry x="110" y="320" width="80" height="40" as="geometry" />
        </mxCell>
        <mxCell id="-7GFlVDksnStliJgZsOv-5" value="Interface Page" style="text;html=1;strokeColor=none;fillColor=none;align=center;verticalAlign=middle;whiteSpace=wrap;rounded=0;" vertex="1" parent="1">
          <mxGeometry x="130" y="330" width="40" height="20" as="geometry" />
        </mxCell>
        <mxCell id="-7GFlVDksnStliJgZsOv-7" value="" style="rounded=0;whiteSpace=wrap;html=1;" vertex="1" parent="1">
          <mxGeometry x="110" y="240" width="80" height="40" as="geometry" />
        </mxCell>
        <mxCell id="-7GFlVDksnStliJgZsOv-8" value="Click Tab Request" style="text;html=1;strokeColor=none;fillColor=none;align=center;verticalAlign=middle;whiteSpace=wrap;rounded=0;" vertex="1" parent="1">
          <mxGeometry x="130" y="250" width="40" height="20" as="geometry" />
        </mxCell>
      </root>
    </mxGraphModel>
  </diagram>
</mxfile>
